<svg fill="#fff" height="800" width="800" version="1.1" id="Layer_1" xmlns="http://www.w3.org/2000/svg" viewBox="0 0 256 173" xml:space="preserve" stroke="#fff"><path d="M128.3 56.9c15.2 0 27.4-12.2 27.4-27.4S143.5 2 128.3 2s-27.4 12.2-27.4 27.4c0 15.3 12.3 27.5 27.4 27.5zm-63.7 79.4H15.3c-16 0-16.9-24.4.3-24.4h42.7l24.5-36.1C90 66 98.3 61.3 109.9 61.3h36.5c11.7 0 19.9 4.3 27.1 14.6l24.6 36.1h43c17.2 0 16.2 24.4.6 24.4h-49.3c-3.9 0-8.6-1.4-11.4-5.6L162.2 104l-.1 67.2H94.8l-.1-67.2-18.8 26.8c-2.7 4.1-7.4 5.5-11.3 5.5zM4 43.2c-2.1 2.6-6.8 15.1 13.2 35.6 21 21.6 34.6 16.9 36.9 14.5l-14-14c-2 2-4.5.2-9.4-3.7-3.2-2.6-6.9-6.1-10.1-10.1-2.2-2.8-4.2-5.7-2.2-7.8L4 43.2zm55.2 45.1c.9-.9.8-2.3 0-3.1l-11-11c-.9-.9-2.3-.9-3.1 0l-4 4 14.1 14.1c.1 0 4-4 4-4zM23.5 52.6c.9-.9.8-2.3 0-3.1L12.2 38.2c-.9-.9-2.3-.9-3.1 0l-4 4 14.4 14.4 4-4zM254 40.2v52.6c0 1.5-1.2 2.7-2.7 2.7h-42.6v-8.2h-4.1c-.8 0-1.4-.6-1.4-1.4s.6-1.4 1.4-1.4h8.2c.8 0 1.4-.6 1.4-1.4s-.6-1.4-1.4-1.4h-4.1v-6.6h-4.1c-.8 0-1.4-.6-1.4-1.4s.6-1.4 1.4-1.4h8.2c.8 0 1.4-.6 1.4-1.4s-.6-1.4-1.4-1.4h-4.1v-6.8h-4.1c-.8 0-1.4-.6-1.4-1.4s.6-1.4 1.4-1.4h8.2c.8 0 1.4-.6 1.4-1.4s-.6-1.4-1.4-1.4h-4.1v-6.6h-4.1c-.8 0-1.4-.6-1.4-1.4s.6-1.4 1.4-1.4h8.2c.8 0 1.4-.6 1.4-1.4s-.6-1.4-1.4-1.4h-4.1v-8.2h42.6c1.5.8 2.7 2 2.7 3.5zm-27.2 19.5c0 2.9 2.3 5.2 5.2 5.2s5.2-2.3 5.2-5.2-2.3-5.2-5.2-5.2-5.2 2.3-5.2 5.2zm14.3 11.5c0-2.7-2.2-4.9-4.9-4.9h-8.6c-2.7 0-4.9 2.2-4.9 4.9v6.2h18.4v-6.2z" id="SVGRepo_iconCarrier"/></svg>