<svg xmlns="http://www.w3.org/2000/svg" viewBox="0 0 528 746.08"><defs><style>.b{fill:#fff}</style></defs><path d="M191.73 264.66C93.12 364.75 29.55 468.55 11.3 577.17c-32.11 55.63 8 125.17 72.27 125.17h360.86c64.24 0 104.38-69.54 72.27-125.17-21.18-121.61-90.24-221.79-180.43-312.51-32.12-55.58-112.42-55.58-144.54 0Z"/><rect x="72" y="463.08" width="387" height="276" rx="12" style="stroke-width:14px;stroke-miterlimit:10;stroke:#fff"/><circle class="b" cx="264.5" cy="599.58" r="52.5"/><path d="M130 284.08s-66 39-72-53 79-88 80-58-8 111-8 111ZM392.13 284.42s66 39 72-53-79-88-80-58 8 111 8 111Z"/><circle cx="981.52" cy="389.77" r="148.95" transform="rotate(-45 432.892 1175.1)"/><path class="b" d="M265.52 92.18a139.68 139.68 0 1 1-98.76 40.9 138.79 138.79 0 0 1 98.76-40.91m0-18.56a158.23 158.23 0 1 0 158.23 158.23A158.23 158.23 0 0 0 265.52 73.62Z"/><path d="M822 318s7-152 160-148 158 148 158 148" transform="translate(-716 -157.92)" style="fill:none;stroke:#000;stroke-width:24px;stroke-miterlimit:10"/><path d="M1124.5 430.5s-58 35-135 32" transform="translate(-716 -157.92)" style="stroke-width:12px;stroke-miterlimit:10;stroke:#fff"/><rect class="b" x="238" y="289.08" width="55" height="32" rx="12"/></svg>