<svg fill="#fff" xmlns="http://www.w3.org/2000/svg" width="40" height="40" viewBox="0 0 512 512" xml:space="preserve" stroke="#fff"><g id="SVGRepo_iconCarrier"><path d="M204.064 46.682V68.7h-56.302V.501h56.302v24.13h-32.172v22.051h32.172zm57.877-22.051h22.492V.501h-56.308v24.13c7.533 7.533 11.461 11.139 22.356 22.034-6.369 0-22.356.022-22.356.021V68.7h56.308V46.682l-22.492-22.051zm79.805 0h22.49V.501H307.93v24.13c7.531 7.533 11.461 11.139 22.355 22.034-6.365 0-22.355.022-22.355.021V68.7h56.307V46.682l-22.491-22.051zm96.649 76.481-34.203 370.486-148.193 39.9-148.196-39.9-34.198-370.486h364.79zm-68.918 75.332H140.245l5.529 44.739H262.049l-6.184 2.574-106.067 44.177 3.518 43.73 102.549.333 54.963.175-3.521 58.311-51.442 14.484v-.046l-.422.116-49.684-12.542-3.015-36.195h-46.411l6.032 69.876 93.5 27.649v-.05l.168.05 93-27.146L361.1 267.935H255.605l.26-.112 109.086-46.639 4.526-44.74z" id="c133de6af664cd4f011a55de6b001a2b"/></g></svg>