<svg fill="#fff" xmlns="http://www.w3.org/2000/svg" width="40" height="40" viewBox="0 0 512 512" xml:space="preserve" stroke="#fff"><g id="SVGRepo_iconCarrier"><path d="M108.669.501h23.032v22.756h21.069V.501h23.034V69.41h-23.032V46.334h-21.069V69.41h-23.032V.501h-.002zm97.422 22.852h-20.275V.501h63.594v22.852h-20.285V69.41h-23.032V23.353h-.002zM259.502.501h24.02l14.771 24.213L313.052.501h24.023V69.41h-22.938V35.256l-15.845 24.5h-.395l-15.856-24.5V69.41h-22.539V.501zm89.038 0h23.038v46.133h32.391V69.41H348.54V.501zM74.987 100.926l32.946 369.533 147.844 41.04L404.031 470.4l32.981-369.475H74.987zm293.302 87.694-2.063 22.977-.906 10.188H191.886l4.142 46.407h165.166l-1.106 12.172-10.65 119.32-.682 7.652L256 433.045v.008l-.208.059-92.839-25.774-6.351-71.161h45.497l3.227 36.146 50.474 13.632.042-.013v-.004l50.551-13.64 5.257-58.781H154.578L143.439 188.62l-1.085-12.157H369.374l-1.085 12.157z" id="c133de6af664cd4f011a55de6b000d0b"/></g></svg>