<svg fill="#fff" xmlns="http://www.w3.org/2000/svg" width="40" height="40" viewBox="0 0 512 512" xml:space="preserve" stroke="#fff"><g id="SVGRepo_iconCarrier"><path fill-rule="evenodd" clip-rule="evenodd" d="M1.008.5C.438.583.48 1.27.521 1.958v508.974c169.364 1.135 340.808.162 510.979.486V.5H1.008zm258.885 451.667c-11.822 11.919-30.478 18.938-53.429 18.938-37.643 0-58.543-18.34-71.884-43.711a967.712 967.712 0 0 1 39.344-23.795c5.456 15.262 23.886 32.42 44.683 21.857 13.183-6.699 11.661-27.01 11.661-49.054V236.53c-.042-.688-.083-1.375.482-1.458h47.116v117.529c0 42.598 3.044 78.387-17.973 99.566zm210.803-42.25c-2.674 39.884-35.243 61.063-79.17 61.188-43.062.124-70.624-19.013-87.433-48.567 12.085-8.317 25.778-15.017 38.375-22.822 10.08 15.761 27.537 30.91 53.429 28.652 16.131-1.406 34.856-14.555 24.285-34.482-5.127-9.66-17.516-14.567-28.656-19.425-35.352-15.424-76.828-29.571-72.861-84.992 1.327-18.514 9.852-31.525 20.889-40.796 11.311-9.5 26.46-15.867 46.629-16.511 36.629-1.173 56.723 15.12 70.429 37.884-11.664 8.891-24.514 16.608-37.401 24.281-4.229-12.995-24.644-25.658-41.772-17.969-7.789 3.493-14.788 13.761-10.684 26.224 3.66 11.115 18.589 17.199 30.599 22.344 36.352 15.56 76.977 30.767 73.342 84.991z" id="5151e0c8492e5103c096af88a51e75c7"/></g></svg>