<svg fill="#fff" xmlns="http://www.w3.org/2000/svg" width="40" height="40" viewBox="0 0 512 512" xml:space="preserve" stroke="#fff"><g id="SVGRepo_iconCarrier"><path fill-rule="evenodd" clip-rule="evenodd" d="m115.889 151.885-24.053-13.773a4.936 4.936 0 0 1-2.451-4.244v-29.306a4.875 4.875 0 0 0-2.443-4.232l-10.239-5.899a4.772 4.772 0 0 0-2.432-.662c-.854 0-1.689.218-2.451.662l-10.246 5.899a4.873 4.873 0 0 0-2.44 4.232v29.306c0 1.745-.928 3.342-2.446 4.244l-24.061 13.773a2.319 2.319 0 0 1-2.429 0c-.766-.421-1.22-1.234-1.22-2.107l-.089-62.733c0-1.759.938-3.375 2.447-4.247L71.819 59.5a4.842 4.842 0 0 1 2.232-.643h.422c.776.033 1.541.24 2.229.643l40.48 23.299a4.878 4.878 0 0 1 2.443 4.247l-.078 62.733c0 .873-.469 1.686-1.216 2.107a2.34 2.34 0 0 1-2.442-.001zm155.728-16.815V88.317c0-1.748.932-3.36 2.443-4.232l40.503-23.373a4.89 4.89 0 0 1 4.887-.004l10.136 5.844a1.712 1.712 0 0 0 2.569-1.482V2.943c0-.869.459-1.667 1.205-2.11a2.458 2.458 0 0 1 2.433-.022l24.098 13.448a4.883 4.883 0 0 1 2.51 4.27V135.07a4.89 4.89 0 0 1-2.447 4.236l-40.502 23.388a4.868 4.868 0 0 1-4.895 0l-40.495-23.388a4.894 4.894 0 0 1-2.445-4.236zm30.164-15.359c0 .436.232.839.609 1.057l13.906 8.014a1.24 1.24 0 0 0 1.22 0l13.906-8.014a1.22 1.22 0 0 0 .609-1.057v-16.058c0-.436-.232-.843-.609-1.057l-13.902-8.033a1.235 1.235 0 0 0-1.228 0l-13.906 8.033a1.22 1.22 0 0 0-.605 1.057v16.058zm178.894-36.262L440.44 60.084a4.876 4.876 0 0 0-4.898-.004l-40.487 23.369a4.89 4.89 0 0 0-2.443 4.236v46.738c0 1.759.946 3.378 2.47 4.251l40.232 22.921a4.888 4.888 0 0 0 4.794.03L464.44 148.1a2.448 2.448 0 0 0 .029-4.259l-40.738-23.384a2.45 2.45 0 0 1-1.228-2.122V103.69c0-.873.466-1.682 1.224-2.122l12.679-7.312a2.452 2.452 0 0 1 2.439 0l12.687 7.312a2.456 2.456 0 0 1 1.224 2.122v11.525a2.447 2.447 0 0 0 3.674 2.114l24.245-14.095a4.885 4.885 0 0 0 2.437-4.232V87.678a4.878 4.878 0 0 0-2.437-4.229zm-327.892 54.992 40.48 23.387a4.9 4.9 0 0 0 4.894 0l40.495-23.387a4.894 4.894 0 0 0 2.443-4.236V87.434a4.89 4.89 0 0 0-2.447-4.236l-40.491-23.365a4.88 4.88 0 0 0-4.891 0l-40.483 23.365a4.89 4.89 0 0 0-2.447 4.236v46.771a4.89 4.89 0 0 0 2.447 4.236zm241.162 107.882-124.834-72.14c-7.833-4.465-18.338-4.465-26.237 0l-124.838 72.14c-8.088 4.658-13.093 13.396-13.093 22.755v144.073c0 9.353 5.005 18.102 13.093 22.767l32.732 18.856c15.861 7.807 21.547 7.807 28.759 7.807 23.477 0 36.968-14.202 36.968-38.969V281.373c0-2.012-1.641-3.597-3.618-3.597h-15.832c-2.011 0-3.626 1.585-3.626 3.597v142.239c0 10.979-11.363 21.905-29.916 12.639l-34.199-19.769a3.81 3.81 0 0 1-1.971-3.331V269.078c0-1.367.766-2.728 1.978-3.423l124.764-72.015c1.156-.673 2.694-.673 3.844 0l124.79 71.996a4.02 4.02 0 0 1 1.937 3.441V413.15c0 1.383-.743 2.706-1.907 3.371l-124.841 72.06c-1.068.65-2.706.65-3.867 0l-32.022-19.015c-.953-.547-2.173-.754-3.098-.229-8.864 5.031-10.542 5.692-18.845 8.576-2.055.717-5.09 1.948 1.128 5.419l41.682 24.663a26.168 26.168 0 0 0 13.093 3.504c4.624 0 9.152-1.19 13.145-3.504l124.834-72.078c8.084-4.705 13.114-13.414 13.114-22.767V269.078c-.002-9.359-5.033-18.079-13.117-22.755zm-94.497 153.085c-37.253 0-45.448-9.359-48.194-27.886a4.092 4.092 0 0 0-4.044-3.453h-18.202a4.05 4.05 0 0 0-4.065 4.07c0 23.705 12.904 51.983 74.506 51.983 44.605 0 70.182-17.559 70.182-48.231 0-30.415-20.553-38.503-63.809-44.232-43.719-5.785-48.161-8.768-48.161-19.007 0-8.436 3.763-19.717 36.144-19.717 28.918 0 39.578 6.231 43.962 25.716.385 1.837 2.056 3.176 3.948 3.176h18.271a4.137 4.137 0 0 0 2.979-1.294c.772-.854 1.183-1.967 1.075-3.135-2.827-33.579-25.143-49.226-70.236-49.226-40.14 0-64.078 16.94-64.078 45.333 0 30.813 23.819 39.334 62.333 43.134 46.092 4.525 49.67 11.256 49.67 20.327 0 15.737-12.624 22.442-42.281 22.442zm138.88-298.364a.92.92 0 0 0-.935 0l-7.767 4.484a.933.933 0 0 0-.47.81v8.979c0 .333.178.644.47.81l7.767 4.484a.935.935 0 0 0 .935 0l7.773-4.484a.93.93 0 0 0 .47-.81v-8.979a.931.931 0 0 0-.47-.81l-7.773-4.484z" id="5151e0c8492e5103c096af88a51f0aa3"/></g></svg>