<svg xmlns="http://www.w3.org/2000/svg" viewBox="0 0 32 32" id="CoatOfArms"><path d="M25.5 1.5a1 1 0 0 1 1 1v20.55c0 2.08-1.28 3.94-3.22 4.681L16 30.5l-7.28-2.77a5.004 5.004 0 0 1-3.22-4.68V2.5a1 1 0 0 1 1-1h19z" class="color65c7ea svgShape"/><path fill="#fff" d="M16 29.93a.518.518 0 0 1-.178-.032l-6.923-2.635A4.53 4.53 0 0 1 6 23.05V2.5a.5.5 0 0 1 .5-.5h19a.5.5 0 0 1 .5.5v20.55a4.53 4.53 0 0 1-2.897 4.212l-6.925 2.636a.518.518 0 0 1-.178.032zM7 3v20.05c0 1.447.906 2.765 2.254 3.278L16 28.895l6.747-2.567A3.526 3.526 0 0 0 25 23.05V3H7z" class="colorfff176 svgShape"/><path fill="#fff" d="M16 26.333a.5.5 0 0 1-.5-.5V21.5c0-2.387 1.58-2.715 2.733-2.955 1.11-.231 1.601-.376 1.601-1.378 0-.483-.574-1.061-.8-1.061a.504.504 0 0 1-.359-.151.504.504 0 0 1-.141-.363c.188-6.408 2.004-8.131 3.692-9.243a.5.5 0 0 1 .774.418V21.5a.5.5 0 0 1-.5.5h-6v3.833a.5.5 0 0 1-.5.5zM16.533 21H22V7.765c-1.181 1.033-2.263 2.859-2.453 7.465.675.313 1.287 1.168 1.287 1.938 0 1.857-1.385 2.146-2.397 2.356-.992.206-1.741.363-1.904 1.476z" class="colorfff176 svgShape"/><path fill="#fff" d="M16 26.333a.5.5 0 0 1-.5-.5V22h-6a.5.5 0 0 1-.5-.5V6.767a.5.5 0 0 1 .775-.418c1.688 1.112 3.503 2.835 3.692 9.243a.5.5 0 0 1-.5.514c-.226 0-.8.577-.8 1.061 0 1.002.491 1.146 1.601 1.378 1.153.24 2.733.568 2.733 2.955v4.333a.502.502 0 0 1-.501.5zM10 21h5.467c-.163-1.113-.912-1.27-1.903-1.477-1.012-.21-2.397-.499-2.397-2.356 0-.77.612-1.624 1.287-1.938-.19-4.605-1.272-6.432-2.453-7.465V21z" class="colorfff176 svgShape"/><path fill="#fff" d="M16 26.333a.5.5 0 0 1-.5-.5V22h-6a.5.5 0 0 1-.5-.5V6.767a.5.5 0 0 1 .775-.418c1.688 1.112 3.503 2.835 3.692 9.243a.5.5 0 0 1-.5.514c-.226 0-.8.577-.8 1.061 0 1.002.491 1.146 1.601 1.378 1.067.222 2.5.521 2.708 2.455H22.5a.5.5 0 0 1 0 1h-6v3.833a.5.5 0 0 1-.5.5zM10 21h5.467c-.163-1.113-.912-1.27-1.903-1.477-1.012-.21-2.397-.499-2.397-2.356 0-.77.612-1.624 1.287-1.938-.19-4.605-1.272-6.432-2.453-7.465V21z" class="colorfff176 svgShape"/><path fill="#fff" d="M22.5 17.667h-2.167a.5.5 0 0 1 0-1H22.5a.5.5 0 0 1 0 1zm-10.833 0H9.5a.5.5 0 0 1 0-1h2.167a.5.5 0 0 1 0 1zm4.329 9.128c-.262 0-.473-.227-.494-.485-.056-.104-.294-.333-.487-.52-.791-.762-2.115-2.036-2.115-4.29 0-1.556.64-2.752 1.26-3.909.659-1.231 1.34-2.504 1.34-4.324a.5.5 0 0 1 1 0c0 1.832.683 3.104 1.343 4.335.618 1.152 1.257 2.344 1.257 3.898 0 2.254-1.324 3.528-2.115 4.29-.193.187-.432.416-.487.52a.3.3 0 0 1-.009.06c-.022.251-.233.425-.493.425zm.003-10.754c-.275.747-.627 1.404-.958 2.021-.612 1.145-1.141 2.132-1.141 3.438 0 1.829 1.045 2.835 1.808 3.569.105.102.203.195.292.286.089-.091.187-.185.292-.286.763-.734 1.808-1.74 1.808-3.569 0-1.303-.528-2.287-1.139-3.426-.332-.62-.686-1.28-.962-2.033z" class="colorfff176 svgShape"/><path fill="#fff" d="M16 15.934a.5.5 0 0 1-.5-.5v-10.4a.5.5 0 0 1 1 0v10.4a.5.5 0 0 1-.5.5z" class="colorfff176 svgShape"/><g class="color000000 svgShape"><path fill="#545454" d="M16 31a.518.518 0 0 1-.178-.032l-7.28-2.77A5.539 5.539 0 0 1 5 23.05V2.5C5 1.673 5.673 1 6.5 1h19c.827 0 1.5.673 1.5 1.5v20.55a5.535 5.535 0 0 1-3.542 5.147l-7.28 2.771A.518.518 0 0 1 16 31zM6.5 2a.5.5 0 0 0-.5.5v20.55a4.535 4.535 0 0 0 2.898 4.214L16 29.965l7.102-2.702A4.533 4.533 0 0 0 26 23.05V2.5a.5.5 0 0 0-.5-.5h-19z" class="color455a64 svgShape"/></g></svg>