<svg xmlns="http://www.w3.org/2000/svg" viewBox="0 0 528 746.08"><defs><style>.a,.d{stroke:#fff;}.a,.c,.d{stroke-miterlimit:10;}.a{stroke-width:14px;}.b{fill:#fff;}.c{fill:none;stroke:#000;stroke-width:24px;}.d{stroke-width:12px;}</style></defs><path d="M907.73,422.58C809.12,522.67,745.55,626.47,727.3,735.09c-32.11,55.63,8,125.17,72.27,125.17h360.86c64.24,0,104.38-69.54,72.27-125.17-21.18-121.61-90.24-221.79-180.43-312.51C1020.15,367,939.85,367,907.73,422.58Z" transform="translate(-716 -157.92)"/><rect class="a" x="72" y="463.08" width="387" height="276" rx="12"/><circle class="b" cx="264.5" cy="599.58" r="52.5"/><path d="M846,442s-66,39-72-53,79-88,80-58S846,442,846,442Z" transform="translate(-716 -157.92)"/><path d="M1108.13,442.34s66,39,72-53-79-88-80-58S1108.13,442.34,1108.13,442.34Z" transform="translate(-716 -157.92)"/><circle cx="981.52" cy="389.77" r="148.95" transform="translate(-704.13 650.28) rotate(-45)"/><path class="b" d="M981.52,250.1A139.68,139.68,0,1,1,882.76,291a138.79,138.79,0,0,1,98.76-40.91m0-18.56a158.23,158.23,0,1,0,158.23,158.23A158.23,158.23,0,0,0,981.52,231.54Z" transform="translate(-716 -157.92)"/><path class="c" d="M822,318s7-152,160-148,158,148,158,148" transform="translate(-716 -157.92)"/><path class="d" d="M1124.5,430.5s-58,35-135,32" transform="translate(-716 -157.92)"/><rect class="b" x="238" y="289.08" width="55" height="32" rx="12"/></svg>