<svg xmlns="http://www.w3.org/2000/svg" enable-background="new 0 0 32 32" viewBox="0 0 32 32" id="CoatOfArms"><path fill="#000" d="M25.5,1.5c0.552,0,1,0.447,1,1v20.55c0,2.08-1.28,3.94-3.22,4.681L16,30.5l-7.28-2.77
				C6.78,26.99,5.5,25.13,5.5,23.05V2.5c0-0.553,0.448-1,1-1H25.5z" class="color65c7ea svgShape"></path><path fill="#ffffff" d="M16,29.93c-0.06,0-0.121-0.011-0.178-0.032l-6.923-2.635C7.165,26.603,6,24.909,6,23.05V2.5
				C6,2.224,6.224,2,6.5,2h19C25.776,2,26,2.224,26,2.5v20.55c0,1.859-1.165,3.552-2.897,4.212l-6.925,2.636
				C16.121,29.919,16.06,29.93,16,29.93z M7,3v20.05c0,1.447,0.906,2.765,2.254,3.278L16,28.895l6.747-2.567
				C24.094,25.814,25,24.497,25,23.05V3H7z" class="colorfff176 svgShape"></path><path fill="#ffffff" d="M16,26.333c-0.276,0-0.5-0.224-0.5-0.5V21.5c0-2.387,1.58-2.715,2.733-2.955
					c1.11-0.231,1.601-0.376,1.601-1.378c0-0.483-0.574-1.061-0.8-1.061c-0.135,0-0.265-0.055-0.359-0.151
					c-0.094-0.098-0.145-0.229-0.141-0.363c0.188-6.408,2.004-8.131,3.692-9.243c0.154-0.101,0.351-0.109,0.512-0.022
					C22.899,6.414,23,6.583,23,6.767V21.5c0,0.276-0.224,0.5-0.5,0.5h-6v3.833C16.5,26.109,16.276,26.333,16,26.333z M16.533,21H22
					V7.765c-1.181,1.033-2.263,2.859-2.453,7.465c0.675,0.313,1.287,1.168,1.287,1.938c0,1.857-1.385,2.146-2.397,2.356
					C17.445,19.73,16.696,19.887,16.533,21z" class="colorfff176 svgShape"></path><path fill="#ffffff" d="M16,26.333c-0.276,0-0.5-0.224-0.5-0.5V22h-6C9.224,22,9,21.776,9,21.5V6.767
					c0-0.184,0.101-0.353,0.263-0.44c0.162-0.087,0.359-0.079,0.512,0.022c1.688,1.112,3.503,2.835,3.692,9.243
					c0.004,0.135-0.047,0.266-0.141,0.363c-0.094,0.097-0.224,0.151-0.359,0.151c-0.226,0-0.8,0.577-0.8,1.061
					c0,1.002,0.491,1.146,1.601,1.378c1.153,0.24,2.733,0.568,2.733,2.955v4.333C16.5,26.109,16.276,26.333,16,26.333z M10,21h5.467
					c-0.163-1.113-0.912-1.27-1.903-1.477c-1.012-0.21-2.397-0.499-2.397-2.356c0-0.77,0.612-1.624,1.287-1.938
					c-0.19-4.605-1.272-6.432-2.453-7.465V21z" class="colorfff176 svgShape"></path><path fill="#ffffff" d="M16,26.333c-0.276,0-0.5-0.224-0.5-0.5V22h-6C9.224,22,9,21.776,9,21.5V6.767
					c0-0.184,0.101-0.353,0.263-0.44c0.162-0.087,0.359-0.079,0.512,0.022c1.688,1.112,3.503,2.835,3.692,9.243
					c0.004,0.135-0.047,0.266-0.141,0.363c-0.094,0.097-0.224,0.151-0.359,0.151c-0.226,0-0.8,0.577-0.8,1.061
					c0,1.002,0.491,1.146,1.601,1.378c1.067,0.222,2.5,0.521,2.708,2.455H22.5c0.276,0,0.5,0.224,0.5,0.5S22.776,22,22.5,22h-6
					v3.833C16.5,26.109,16.276,26.333,16,26.333z M10,21h5.467c-0.163-1.113-0.912-1.27-1.903-1.477
					c-1.012-0.21-2.397-0.499-2.397-2.356c0-0.77,0.612-1.624,1.287-1.938c-0.19-4.605-1.272-6.432-2.453-7.465V21z" class="colorfff176 svgShape"></path><path fill="#ffffff" d="M22.5 17.667h-2.167c-.276 0-.5-.224-.5-.5s.224-.5.5-.5H22.5c.276 0 .5.224.5.5S22.776 17.667 22.5 17.667zM11.667 17.667H9.5c-.276 0-.5-.224-.5-.5s.224-.5.5-.5h2.167c.276 0 .5.224.5.5S11.943 17.667 11.667 17.667zM15.996 26.795c-.262 0-.473-.227-.494-.485-.056-.104-.294-.333-.487-.52-.791-.762-2.115-2.036-2.115-4.29 0-1.556.64-2.752 1.26-3.909.659-1.231 1.34-2.504 1.34-4.324 0-.276.224-.5.5-.5s.5.224.5.5c0 1.832.683 3.104 1.343 4.335.618 1.152 1.257 2.344 1.257 3.898 0 2.254-1.324 3.528-2.115 4.29-.193.187-.432.416-.487.52-.001.021-.004.04-.009.06C16.467 26.621 16.256 26.795 15.996 26.795zM15.999 16.041c-.275.747-.627 1.404-.958 2.021C14.429 19.207 13.9 20.194 13.9 21.5c0 1.829 1.045 2.835 1.808 3.569.105.102.203.195.292.286.089-.091.187-.185.292-.286.763-.734 1.808-1.74 1.808-3.569 0-1.303-.528-2.287-1.139-3.426C16.629 17.454 16.275 16.794 15.999 16.041z" class="colorfff176 svgShape"></path><path fill="#ffffff" d="M16,15.934c-0.276,0-0.5-0.224-0.5-0.5v-10.4c0-0.276,0.224-0.5,0.5-0.5s0.5,0.224,0.5,0.5v10.4
					C16.5,15.71,16.276,15.934,16,15.934z" class="colorfff176 svgShape"></path><g fill="#000000" class="color000000 svgShape"><path fill="#545454" d="M16,31c-0.06,0-0.121-0.011-0.178-0.032l-7.28-2.77C6.423,27.39,5,25.32,5,23.05V2.5
			C5,1.673,5.673,1,6.5,1h19C26.327,1,27,1.673,27,2.5v20.55c0,2.271-1.423,4.34-3.542,5.147l-7.28,2.771
			C16.121,30.989,16.06,31,16,31z M6.5,2C6.224,2,6,2.225,6,2.5v20.55c0,1.858,1.165,3.552,2.898,4.214L16,29.965l7.102-2.702
			C24.835,26.602,26,24.908,26,23.05V2.5C26,2.225,25.776,2,25.5,2H6.5z" class="color455a64 svgShape"></path></g></svg>